<mxfile host="Electron" modified="2024-11-16T05:49:33.576Z" agent="Mozilla/5.0 (Windows NT 10.0; Win64; x64) AppleWebKit/537.36 (KHTML, like Gecko) draw.io/24.6.1 Chrome/124.0.6367.207 Electron/30.0.6 Safari/537.36" etag="MtiIXxQBuPYYLk9hP7Nh" version="24.6.1" type="device">
  <diagram name="페이지-1" id="1njH9Wt9Co4ZMxadSzRJ">
    <mxGraphModel dx="698" dy="1644" grid="1" gridSize="10" guides="1" tooltips="1" connect="1" arrows="1" fold="1" page="1" pageScale="1" pageWidth="1654" pageHeight="1169" math="0" shadow="0">
      <root>
        <mxCell id="0" />
        <mxCell id="1" parent="0" />
        <mxCell id="NFVc4L6Xh04qwGhnmsSC-1" value="" style="ellipse;whiteSpace=wrap;html=1;aspect=fixed;" vertex="1" parent="1">
          <mxGeometry x="680" y="420" width="50" height="50" as="geometry" />
        </mxCell>
        <mxCell id="NFVc4L6Xh04qwGhnmsSC-2" value="" style="ellipse;whiteSpace=wrap;html=1;aspect=fixed;" vertex="1" parent="1">
          <mxGeometry x="680" y="80" width="50" height="50" as="geometry" />
        </mxCell>
        <mxCell id="NFVc4L6Xh04qwGhnmsSC-3" value="" style="ellipse;whiteSpace=wrap;html=1;aspect=fixed;" vertex="1" parent="1">
          <mxGeometry x="680" y="-260" width="50" height="50" as="geometry" />
        </mxCell>
        <mxCell id="NFVc4L6Xh04qwGhnmsSC-4" value="" style="ellipse;whiteSpace=wrap;html=1;aspect=fixed;" vertex="1" parent="1">
          <mxGeometry x="710" y="150" width="10" height="10" as="geometry" />
        </mxCell>
        <mxCell id="NFVc4L6Xh04qwGhnmsSC-5" value="" style="ellipse;whiteSpace=wrap;html=1;aspect=fixed;" vertex="1" parent="1">
          <mxGeometry x="710" y="-190" width="10" height="10" as="geometry" />
        </mxCell>
        <mxCell id="NFVc4L6Xh04qwGhnmsSC-6" value="" style="endArrow=none;html=1;rounded=0;" edge="1" parent="1">
          <mxGeometry width="50" height="50" relative="1" as="geometry">
            <mxPoint x="640" y="480" as="sourcePoint" />
            <mxPoint x="640" y="-280" as="targetPoint" />
          </mxGeometry>
        </mxCell>
        <mxCell id="NFVc4L6Xh04qwGhnmsSC-7" value="" style="endArrow=none;html=1;rounded=0;" edge="1" parent="1">
          <mxGeometry width="50" height="50" relative="1" as="geometry">
            <mxPoint x="1320" y="520" as="sourcePoint" />
            <mxPoint x="1320" y="-320" as="targetPoint" />
          </mxGeometry>
        </mxCell>
        <mxCell id="NFVc4L6Xh04qwGhnmsSC-8" value="" style="endArrow=none;html=1;rounded=0;" edge="1" parent="1">
          <mxGeometry width="50" height="50" relative="1" as="geometry">
            <mxPoint x="640" y="480" as="sourcePoint" />
            <mxPoint x="760" y="480" as="targetPoint" />
          </mxGeometry>
        </mxCell>
        <mxCell id="NFVc4L6Xh04qwGhnmsSC-9" value="" style="endArrow=none;html=1;rounded=0;" edge="1" parent="1">
          <mxGeometry width="50" height="50" relative="1" as="geometry">
            <mxPoint x="640" y="-280" as="sourcePoint" />
            <mxPoint x="760" y="-280" as="targetPoint" />
          </mxGeometry>
        </mxCell>
        <mxCell id="NFVc4L6Xh04qwGhnmsSC-10" value="" style="endArrow=none;html=1;rounded=0;" edge="1" parent="1">
          <mxGeometry width="50" height="50" relative="1" as="geometry">
            <mxPoint x="760" y="520" as="sourcePoint" />
            <mxPoint x="760" y="480" as="targetPoint" />
          </mxGeometry>
        </mxCell>
        <mxCell id="NFVc4L6Xh04qwGhnmsSC-11" value="" style="endArrow=none;html=1;rounded=0;" edge="1" parent="1">
          <mxGeometry width="50" height="50" relative="1" as="geometry">
            <mxPoint x="760" y="-280" as="sourcePoint" />
            <mxPoint x="760" y="-320" as="targetPoint" />
          </mxGeometry>
        </mxCell>
        <mxCell id="NFVc4L6Xh04qwGhnmsSC-12" value="" style="endArrow=none;html=1;rounded=0;" edge="1" parent="1">
          <mxGeometry width="50" height="50" relative="1" as="geometry">
            <mxPoint x="760" y="520" as="sourcePoint" />
            <mxPoint x="1320" y="520" as="targetPoint" />
          </mxGeometry>
        </mxCell>
        <mxCell id="NFVc4L6Xh04qwGhnmsSC-13" value="" style="endArrow=none;html=1;rounded=0;" edge="1" parent="1">
          <mxGeometry width="50" height="50" relative="1" as="geometry">
            <mxPoint x="760" y="-320" as="sourcePoint" />
            <mxPoint x="1320" y="-320" as="targetPoint" />
          </mxGeometry>
        </mxCell>
        <mxCell id="NFVc4L6Xh04qwGhnmsSC-14" value="" style="ellipse;whiteSpace=wrap;html=1;aspect=fixed;" vertex="1" parent="1">
          <mxGeometry x="1270" y="470" width="50" height="50" as="geometry" />
        </mxCell>
        <mxCell id="NFVc4L6Xh04qwGhnmsSC-15" value="" style="ellipse;whiteSpace=wrap;html=1;aspect=fixed;" vertex="1" parent="1">
          <mxGeometry x="1270" y="-320" width="50" height="50" as="geometry" />
        </mxCell>
        <mxCell id="NFVc4L6Xh04qwGhnmsSC-16" value="" style="ellipse;whiteSpace=wrap;html=1;aspect=fixed;" vertex="1" parent="1">
          <mxGeometry x="1270" y="200" width="50" height="50" as="geometry" />
        </mxCell>
        <mxCell id="NFVc4L6Xh04qwGhnmsSC-17" value="" style="ellipse;whiteSpace=wrap;html=1;aspect=fixed;" vertex="1" parent="1">
          <mxGeometry x="1270" y="-50" width="50" height="50" as="geometry" />
        </mxCell>
        <mxCell id="NFVc4L6Xh04qwGhnmsSC-18" value="&lt;span style=&quot;font-family:&#39;Courier New&#39;;&quot;&gt;(&lt;/span&gt;&lt;a href=&quot;xprobe:xy:0.0000 0.0000&quot;&gt;&lt;span style=&quot;font-family: &amp;quot;Courier New&amp;quot;; color: rgb(0, 0, 255); background-color: transparent;&quot;&gt;0.0000 0.0000&lt;/span&gt;&lt;/a&gt;&lt;span style=&quot;font-family:&#39;Courier New&#39;;&quot;&gt;)&amp;nbsp;&lt;/span&gt;" style="text;html=1;align=center;verticalAlign=middle;whiteSpace=wrap;rounded=0;" vertex="1" parent="1">
          <mxGeometry x="720" y="400" width="160" height="30" as="geometry" />
        </mxCell>
        <mxCell id="NFVc4L6Xh04qwGhnmsSC-19" value="" style="rounded=0;whiteSpace=wrap;html=1;fillColor=none;" vertex="1" parent="1">
          <mxGeometry x="670" y="140" width="60" height="270" as="geometry" />
        </mxCell>
        <mxCell id="NFVc4L6Xh04qwGhnmsSC-20" value="&lt;p style=&quot;margin: 0px;&quot;&gt;&lt;span style=&quot;font-family:&#39;Courier New&#39;;&quot;&gt;(&lt;/span&gt;&lt;a href=&quot;xprobe:xy:0.0000 1476.3750&quot;&gt;&lt;span style=&quot;font-family: &amp;quot;Courier New&amp;quot;; color: rgb(0, 0, 255); background-color: transparent;&quot;&gt;0.0000 1476.3750&lt;/span&gt;&lt;/a&gt;&lt;span style=&quot;font-family:&#39;Courier New&#39;;&quot;&gt;)&lt;/span&gt;&lt;/p&gt;&lt;p style=&quot;margin: 0px;&quot;&gt;&lt;span style=&quot;font-family: &amp;quot;Courier New&amp;quot;; background-color: initial;&quot;&gt;90.000  degrees&lt;/span&gt;&lt;/p&gt;" style="text;html=1;align=center;verticalAlign=middle;whiteSpace=wrap;rounded=0;" vertex="1" parent="1">
          <mxGeometry x="720" y="140" width="160" height="30" as="geometry" />
        </mxCell>
        <mxCell id="NFVc4L6Xh04qwGhnmsSC-21" value="&lt;span style=&quot;font-family:&#39;Courier New&#39;;&quot;&gt;(&lt;/span&gt;&lt;a href=&quot;xprobe:xy:0.0000 2952.7500&quot;&gt;&lt;span style=&quot;font-family: &amp;quot;Courier New&amp;quot;; color: rgb(0, 0, 255); background-color: transparent;&quot;&gt;0.0000 2952.7500&lt;/span&gt;&lt;/a&gt;&lt;span style=&quot;font-family:&#39;Courier New&#39;;&quot;&gt;)&amp;nbsp;&lt;/span&gt;" style="text;html=1;align=center;verticalAlign=middle;whiteSpace=wrap;rounded=0;" vertex="1" parent="1">
          <mxGeometry x="730" y="50" width="150" height="30" as="geometry" />
        </mxCell>
        <mxCell id="NFVc4L6Xh04qwGhnmsSC-22" value="" style="rounded=0;whiteSpace=wrap;html=1;fillColor=none;" vertex="1" parent="1">
          <mxGeometry x="670" y="-200" width="60" height="270" as="geometry" />
        </mxCell>
        <mxCell id="NFVc4L6Xh04qwGhnmsSC-25" value="&lt;p style=&quot;margin: 0px;&quot;&gt;&lt;span style=&quot;font-family:&#39;Courier New&#39;;&quot;&gt;(&lt;/span&gt;&lt;a href=&quot;xprobe:xy:0.0000 4429.1250&quot;&gt;&lt;span style=&quot;font-family: &amp;quot;Courier New&amp;quot;; color: rgb(0, 0, 255); background-color: transparent;&quot;&gt;0.0000 4429.1250&lt;/span&gt;&lt;/a&gt;&lt;span style=&quot;font-family:&#39;Courier New&#39;;&quot;&gt;)&lt;/span&gt;&lt;/p&gt;&lt;p style=&quot;margin: 0px;&quot;&gt;&lt;span style=&quot;font-family: &amp;quot;Courier New&amp;quot;; background-color: initial;&quot;&gt;90.000  degrees&lt;/span&gt;&lt;/p&gt;" style="text;html=1;align=center;verticalAlign=middle;whiteSpace=wrap;rounded=0;" vertex="1" parent="1">
          <mxGeometry x="720" y="-200" width="160" height="30" as="geometry" />
        </mxCell>
        <mxCell id="NFVc4L6Xh04qwGhnmsSC-26" value="&lt;p style=&quot;margin: 0px;&quot;&gt;&lt;span style=&quot;font-family:&#39;Courier New&#39;;&quot;&gt;(&lt;/span&gt;&lt;a href=&quot;xprobe:xy:0.0000 5905.5000&quot;&gt;&lt;span style=&quot;font-family: &amp;quot;Courier New&amp;quot;; color: rgb(0, 0, 255); background-color: transparent;&quot;&gt;0.0000 5905.5000&lt;/span&gt;&lt;/a&gt;&lt;span style=&quot;font-family:&#39;Courier New&#39;;&quot;&gt;)&amp;nbsp;&lt;/span&gt;&lt;br&gt;&lt;/p&gt;" style="text;html=1;align=center;verticalAlign=middle;whiteSpace=wrap;rounded=0;" vertex="1" parent="1">
          <mxGeometry x="720" y="-270" width="160" height="30" as="geometry" />
        </mxCell>
        <mxCell id="NFVc4L6Xh04qwGhnmsSC-27" value="&lt;span style=&quot;font-family:&#39;Courier New&#39;;&quot;&gt;(&lt;/span&gt;&lt;a href=&quot;xprobe:xy:4175.0000 -422.2500&quot;&gt;&lt;span style=&quot;font-family: &amp;quot;Courier New&amp;quot;; color: rgb(0, 0, 255); background-color: transparent;&quot;&gt;4175.0000 -422.2500&lt;/span&gt;&lt;/a&gt;&lt;span style=&quot;font-family:&#39;Courier New&#39;;&quot;&gt;)&amp;nbsp;&lt;/span&gt;" style="text;html=1;align=center;verticalAlign=middle;whiteSpace=wrap;rounded=0;" vertex="1" parent="1">
          <mxGeometry x="1130" y="430" width="200" height="30" as="geometry" />
        </mxCell>
        <mxCell id="NFVc4L6Xh04qwGhnmsSC-28" value="&lt;span style=&quot;font-family:&#39;Courier New&#39;;&quot;&gt;(&lt;/span&gt;&lt;a href=&quot;xprobe:xy:4175.0000 1752.7500&quot;&gt;&lt;span style=&quot;font-family: &amp;quot;Courier New&amp;quot;; color: rgb(0, 0, 255); background-color: transparent;&quot;&gt;4175.0000 1752.7500&lt;/span&gt;&lt;/a&gt;&lt;span style=&quot;font-family:&#39;Courier New&#39;;&quot;&gt;)&lt;/span&gt;" style="text;html=1;align=center;verticalAlign=middle;whiteSpace=wrap;rounded=0;" vertex="1" parent="1">
          <mxGeometry x="1130" y="170" width="200" height="30" as="geometry" />
        </mxCell>
        <mxCell id="NFVc4L6Xh04qwGhnmsSC-29" value="&lt;span style=&quot;font-family:&#39;Courier New&#39;;&quot;&gt;(&lt;/span&gt;&lt;a href=&quot;xprobe:xy:4175.0000 4152.7500&quot;&gt;&lt;span style=&quot;font-family: &amp;quot;Courier New&amp;quot;; color: rgb(0, 0, 255); background-color: transparent;&quot;&gt;4175.0000 4152.7500&lt;/span&gt;&lt;/a&gt;&lt;span style=&quot;font-family:&#39;Courier New&#39;;&quot;&gt;)&lt;/span&gt;" style="text;html=1;align=center;verticalAlign=middle;whiteSpace=wrap;rounded=0;" vertex="1" parent="1">
          <mxGeometry x="1130" y="-80" width="200" height="30" as="geometry" />
        </mxCell>
        <mxCell id="NFVc4L6Xh04qwGhnmsSC-30" value="&lt;span style=&quot;font-family:&#39;Courier New&#39;;&quot;&gt;(&lt;/span&gt;&lt;a href=&quot;xprobe:xy:4175.0000 6327.7500&quot;&gt;&lt;span style=&quot;font-family: &amp;quot;Courier New&amp;quot;; color: rgb(0, 0, 255); background-color: transparent;&quot;&gt;4175.0000 6327.7500&lt;/span&gt;&lt;/a&gt;&lt;span style=&quot;font-family:&#39;Courier New&#39;;&quot;&gt;)&lt;/span&gt;" style="text;html=1;align=center;verticalAlign=middle;whiteSpace=wrap;rounded=0;" vertex="1" parent="1">
          <mxGeometry x="1130" y="-270" width="200" height="30" as="geometry" />
        </mxCell>
        <mxCell id="NFVc4L6Xh04qwGhnmsSC-31" value="&lt;p style=&quot;margin: 0px;&quot;&gt;&lt;span style=&quot;font-family:&#39;Courier New&#39;;&quot;&gt;segment:xy (&lt;/span&gt;&lt;a href=&quot;xprobe:xy:-400.0000 6077.7500&quot;&gt;&lt;span style=&quot;font-family: &amp;quot;Courier New&amp;quot;; color: rgb(0, 0, 255); background-color: transparent;&quot;&gt;-400.0000 6077.7500&lt;/span&gt;&lt;/a&gt;&lt;span style=&quot;font-family:&#39;Courier New&#39;;&quot;&gt;) xy (&lt;/span&gt;&lt;a href=&quot;xprobe:xy:500.0000 6077.7500&quot;&gt;&lt;span style=&quot;font-family: &amp;quot;Courier New&amp;quot;; color: rgb(0, 0, 255); background-color: transparent;&quot;&gt;500.0000 6077.7500&lt;/span&gt;&lt;/a&gt;&lt;span style=&quot;font-family:&#39;Courier New&#39;;&quot;&gt;) width (0.0000) font (Solid) &lt;/span&gt;&lt;/p&gt;&lt;pre style=&quot;margin-top: 0px; margin-bottom: 0px;&quot;&gt;&lt;span style=&quot;font-family:&#39;Courier New&#39;;&quot;&gt;segment:xy (&lt;/span&gt;&lt;a href=&quot;xprobe:xy:500.0000 6077.7500&quot;&gt;&lt;span style=&quot;font-family: &amp;quot;Courier New&amp;quot;; color: rgb(0, 0, 255); background-color: transparent;&quot;&gt;500.0000 6077.7500&lt;/span&gt;&lt;/a&gt;&lt;span style=&quot;font-family:&#39;Courier New&#39;;&quot;&gt;) xy (&lt;/span&gt;&lt;a href=&quot;xprobe:xy:500.0000 6502.7500&quot;&gt;&lt;span style=&quot;font-family: &amp;quot;Courier New&amp;quot;; color: rgb(0, 0, 255); background-color: transparent;&quot;&gt;500.0000 6502.7500&lt;/span&gt;&lt;/a&gt;&lt;span style=&quot;font-family:&#39;Courier New&#39;;&quot;&gt;) width (0.0000) font (Solid) &lt;/span&gt;&lt;/pre&gt;&lt;pre style=&quot;margin-top: 0px; margin-bottom: 0px;&quot;&gt;&lt;span style=&quot;font-family:&#39;Courier New&#39;;&quot;&gt;segment:xy (&lt;/span&gt;&lt;a href=&quot;xprobe:xy:500.0000 6502.7500&quot;&gt;&lt;span style=&quot;font-family: &amp;quot;Courier New&amp;quot;; color: rgb(0, 0, 255); background-color: transparent;&quot;&gt;500.0000 6502.7500&lt;/span&gt;&lt;/a&gt;&lt;span style=&quot;font-family:&#39;Courier New&#39;;&quot;&gt;) xy (&lt;/span&gt;&lt;a href=&quot;xprobe:xy:4350.0000 6502.7500&quot;&gt;&lt;span style=&quot;font-family: &amp;quot;Courier New&amp;quot;; color: rgb(0, 0, 255); background-color: transparent;&quot;&gt;4350.0000 6502.7500&lt;/span&gt;&lt;/a&gt;&lt;span style=&quot;font-family:&#39;Courier New&#39;;&quot;&gt;) width (0.0000) font (Solid) &lt;/span&gt;&lt;/pre&gt;&lt;pre style=&quot;margin-top: 0px; margin-bottom: 0px;&quot;&gt;&lt;span style=&quot;font-family:&#39;Courier New&#39;;&quot;&gt;segment:xy (&lt;/span&gt;&lt;a href=&quot;xprobe:xy:4350.0000 6502.7500&quot;&gt;&lt;span style=&quot;font-family: &amp;quot;Courier New&amp;quot;; color: rgb(0, 0, 255); background-color: transparent;&quot;&gt;4350.0000 6502.7500&lt;/span&gt;&lt;/a&gt;&lt;span style=&quot;font-family:&#39;Courier New&#39;;&quot;&gt;) xy (&lt;/span&gt;&lt;a href=&quot;xprobe:xy:4350.0000 -597.2500&quot;&gt;&lt;span style=&quot;font-family: &amp;quot;Courier New&amp;quot;; color: rgb(0, 0, 255); background-color: transparent;&quot;&gt;4350.0000 -597.2500&lt;/span&gt;&lt;/a&gt;&lt;span style=&quot;font-family:&#39;Courier New&#39;;&quot;&gt;) width (0.0000) font (Solid) &lt;/span&gt;&lt;/pre&gt;&lt;pre style=&quot;margin-top: 0px; margin-bottom: 0px;&quot;&gt;&lt;span style=&quot;font-family:&#39;Courier New&#39;;&quot;&gt;segment:xy (&lt;/span&gt;&lt;a href=&quot;xprobe:xy:4350.0000 -597.2500&quot;&gt;&lt;span style=&quot;font-family: &amp;quot;Courier New&amp;quot;; color: rgb(0, 0, 255); background-color: transparent;&quot;&gt;4350.0000 -597.2500&lt;/span&gt;&lt;/a&gt;&lt;span style=&quot;font-family:&#39;Courier New&#39;;&quot;&gt;) xy (&lt;/span&gt;&lt;a href=&quot;xprobe:xy:500.0000 -597.2500&quot;&gt;&lt;span style=&quot;font-family: &amp;quot;Courier New&amp;quot;; color: rgb(0, 0, 255); background-color: transparent;&quot;&gt;500.0000 -597.2500&lt;/span&gt;&lt;/a&gt;&lt;span style=&quot;font-family:&#39;Courier New&#39;;&quot;&gt;) width (0.0000) font (Solid) &lt;/span&gt;&lt;/pre&gt;&lt;pre style=&quot;margin-top: 0px; margin-bottom: 0px;&quot;&gt;&lt;span style=&quot;font-family:&#39;Courier New&#39;;&quot;&gt;segment:xy (&lt;/span&gt;&lt;a href=&quot;xprobe:xy:500.0000 -597.2500&quot;&gt;&lt;span style=&quot;font-family: &amp;quot;Courier New&amp;quot;; color: rgb(0, 0, 255); background-color: transparent;&quot;&gt;500.0000 -597.2500&lt;/span&gt;&lt;/a&gt;&lt;span style=&quot;font-family:&#39;Courier New&#39;;&quot;&gt;) xy (&lt;/span&gt;&lt;a href=&quot;xprobe:xy:500.0000 -197.2500&quot;&gt;&lt;span style=&quot;font-family: &amp;quot;Courier New&amp;quot;; color: rgb(0, 0, 255); background-color: transparent;&quot;&gt;500.0000 -197.2500&lt;/span&gt;&lt;/a&gt;&lt;span style=&quot;font-family:&#39;Courier New&#39;;&quot;&gt;) width (0.0000) font (Solid) &lt;/span&gt;&lt;/pre&gt;&lt;pre style=&quot;margin-top: 0px; margin-bottom: 0px;&quot;&gt;&lt;span style=&quot;font-family:&#39;Courier New&#39;;&quot;&gt;segment:xy (&lt;/span&gt;&lt;a href=&quot;xprobe:xy:500.0000 -197.2500&quot;&gt;&lt;span style=&quot;font-family: &amp;quot;Courier New&amp;quot;; color: rgb(0, 0, 255); background-color: transparent;&quot;&gt;500.0000 -197.2500&lt;/span&gt;&lt;/a&gt;&lt;span style=&quot;font-family:&#39;Courier New&#39;;&quot;&gt;) xy (&lt;/span&gt;&lt;a href=&quot;xprobe:xy:-400.0000 -197.2500&quot;&gt;&lt;span style=&quot;font-family: &amp;quot;Courier New&amp;quot;; color: rgb(0, 0, 255); background-color: transparent;&quot;&gt;-400.0000 -197.2500&lt;/span&gt;&lt;/a&gt;&lt;span style=&quot;font-family:&#39;Courier New&#39;;&quot;&gt;) width (0.0000) font (Solid) &lt;/span&gt;&lt;/pre&gt;&lt;p style=&quot;margin: 0px;&quot;&gt;&lt;span style=&quot;background-color: initial; font-family: &amp;quot;Courier New&amp;quot;;&quot;&gt;segment:xy (&lt;/span&gt;&lt;a style=&quot;background-color: initial;&quot; href=&quot;xprobe:xy:-400.0000 -197.2500&quot;&gt;&lt;span style=&quot;font-family: &amp;quot;Courier New&amp;quot;; color: rgb(0, 0, 255); background-color: transparent;&quot;&gt;-400.0000 -197.2500&lt;/span&gt;&lt;/a&gt;&lt;span style=&quot;background-color: initial; font-family: &amp;quot;Courier New&amp;quot;;&quot;&gt;) xy (&lt;/span&gt;&lt;a style=&quot;background-color: initial;&quot; href=&quot;xprobe:xy:-400.0000 6077.7500&quot;&gt;&lt;span style=&quot;font-family: &amp;quot;Courier New&amp;quot;; color: rgb(0, 0, 255); background-color: transparent;&quot;&gt;-400.0000 6077.7500&lt;/span&gt;&lt;/a&gt;&lt;span style=&quot;background-color: initial; font-family: &amp;quot;Courier New&amp;quot;;&quot;&gt;) width (0.0000) font (Solid)&amp;nbsp;&lt;/span&gt;&lt;br&gt;&lt;/p&gt;" style="text;html=1;align=center;verticalAlign=middle;whiteSpace=wrap;rounded=0;" vertex="1" parent="1">
          <mxGeometry x="140" y="-480" width="720" height="150" as="geometry" />
        </mxCell>
      </root>
    </mxGraphModel>
  </diagram>
</mxfile>
